HIERARCHY
ROOT Bone-00
{
	OFFSET 0.000000 0.000000 0.000000
	CHANNELS 6 Xposition Yposition Zposition Xrotation Yrotation Zrotation
	JOINT Bone-20
	{
		OFFSET 0.000000 0.000000 2.000000
		CHANNELS 3 Xrotation Yrotation Zrotation
		JOINT Bone-60
		{
			OFFSET 0.000000 0.000000 -0.300000
			CHANNELS 3 Xrotation Yrotation Zrotation
			JOINT Bone-61
			{
				OFFSET 0.300000 0.000000 0.000000
				CHANNELS 3 Xrotation Yrotation Zrotation
				JOINT Bone-62
				{
					OFFSET 0.000000 0.000000 -0.700000
					CHANNELS 3 Xrotation Yrotation Zrotation
					JOINT Bone-63
					{
						OFFSET 0.000000 0.000000 -0.800000
						CHANNELS 3 Xrotation Yrotation Zrotation
						End Site
						{
							OFFSET 0.000000 -0.300000 0.000000
						}
					}
				}
			}
		}
		JOINT Bone-70
		{
			OFFSET 0.000000 0.000000 -0.300000
			CHANNELS 3 Xrotation Yrotation Zrotation
			JOINT Bone-71
			{
				OFFSET -0.300000 0.000000 0.000000
				CHANNELS 3 Xrotation Yrotation Zrotation
				JOINT Bone-72
				{
					OFFSET 0.000000 0.000000 -0.700000
					CHANNELS 3 Xrotation Yrotation Zrotation
					JOINT Bone-73
					{
						OFFSET 0.000000 0.000000 -0.800000
						CHANNELS 3 Xrotation Yrotation Zrotation
						End Site
						{
							OFFSET 0.000000 -0.300000 0.000000
						}
					}
				}
			}
		}
	}
	JOINT Bone-10
	{
		OFFSET 0.000000 0.000000 2.000000
		CHANNELS 3 Xrotation Yrotation Zrotation
		JOINT Bone-30
		{
			OFFSET 0.000000 0.000000 1.000000
			CHANNELS 3 Xrotation Yrotation Zrotation
			End Site
			{
				OFFSET 0.000000 0.000000 1.000000
			}
		}
		JOINT Bone-40
		{
			OFFSET 0.000000 0.000000 1.000000
			CHANNELS 3 Xrotation Yrotation Zrotation
			JOINT Bone-41
			{
				OFFSET 0.500000 0.000000 -0.200000
				CHANNELS 3 Xrotation Yrotation Zrotation
				JOINT Bone-42
				{
					OFFSET 0.500000 0.000000 0.000000
					CHANNELS 3 Xrotation Yrotation Zrotation
					JOINT Bone-43
					{
						OFFSET 0.600000 0.000000 0.000000
						CHANNELS 3 Xrotation Yrotation Zrotation
						End Site
						{
							OFFSET 0.000000 -0.300000 0.000000
						}
					}
				}
			}
		}
		JOINT Bone-50
		{
			OFFSET 0.000000 0.000000 1.000000
			CHANNELS 3 Xrotation Yrotation Zrotation
			JOINT Bone-51
			{
				OFFSET -0.500000 0.000000 -0.204061
				CHANNELS 3 Xrotation Yrotation Zrotation
				JOINT Bone-52
				{
					OFFSET -0.500000 0.000000 0.004061
					CHANNELS 3 Xrotation Yrotation Zrotation
					JOINT Bone-53
					{
						OFFSET -0.600000 0.000000 0.000000
						CHANNELS 3 Xrotation Yrotation Zrotation
						End Site
						{
							OFFSET 0.000000 -0.300000 0.000000
						}
					}
				}
			}
		}
	}
}
MOTION
Frames: 11
Frame Time: 0.050000
0.000000 0.000000 0.000000 -0.000000 0.000000 -0.000000 -0.000000 0.000000 -0.000000 -0.000000 0.000000 0.000000 -0.000000 0.000000 -0.000000 -0.000000 0.000000 -0.000000 -0.000000 0.000000 -0.000000 -0.000000 0.000000 0.000000 -0.000000 0.000000 -0.000000 -0.000000 -0.000000 -0.000000 -0.000000 0.000000 -0.000000 -0.000000 0.000000 -0.000000 -0.000000 0.000000 -0.000000 -0.000000 -0.000003 -0.000001 0.000029 83.974410 0.000154 -0.000005 0.000005 -89.999989 0.000001 -11.581883 -0.000005 -0.000000 0.000000 0.000000 -3.994693 -83.956282 -4.431781 0.000007 0.000007 90.000009 -0.000000 -0.000000 0.000000 
0.000000 0.000000 0.000000 -0.000000 0.000000 -0.000000 -0.000000 0.000000 -0.000000 -0.000000 0.000000 0.000000 -0.000000 0.000000 -0.000000 -0.000000 0.000000 -0.000000 -0.000000 0.000000 -0.000000 -0.000000 0.000000 0.000000 -0.000000 0.000000 -0.000000 -0.000000 -0.000000 -0.000000 -0.000000 0.000000 -0.000000 -0.000000 0.000000 -0.000000 -0.000000 0.000000 -0.000000 -0.000000 -0.000003 -0.000001 15.886439 77.158256 -19.843233 -0.000005 0.000006 -89.999989 -12.122208 -10.255076 -1.091799 -0.000000 0.000000 0.000000 14.496984 -77.300830 18.008940 0.000006 0.000007 90.000009 -11.874832 -0.000000 0.000000 
0.000000 0.000000 0.000000 -0.000000 0.000000 -0.000000 -0.000000 0.000000 -0.000000 -0.000000 0.000000 0.000000 -0.000000 0.000000 -0.000000 -0.000000 0.000000 -0.000000 -0.000000 0.000000 -0.000000 -0.000000 0.000000 0.000000 -0.000000 0.000000 -0.000000 -0.000000 -0.000000 -0.000000 -0.000000 0.000000 -0.000000 -0.000000 0.000000 -0.000000 -0.000000 0.000000 -0.000000 -0.000000 -0.000003 -0.000001 19.273704 57.387161 -34.470565 -0.000004 0.000005 -89.999989 -39.249255 -6.643500 -2.371187 -0.000000 0.000000 0.000000 19.266470 -57.595037 33.990419 0.000006 0.000005 90.000009 -38.784140 -0.000000 -0.000001 
0.000000 0.000000 0.000000 -0.000000 0.000000 -0.000000 -0.000000 0.000000 -0.000000 -0.000000 0.000000 0.000000 -0.000000 0.000000 -0.000000 -0.000000 0.000000 -0.000000 -0.000000 0.000000 -0.000000 -0.000000 0.000000 0.000000 -0.000000 0.000000 -0.000000 -0.000000 -0.000000 -0.000000 -0.000000 0.000000 -0.000000 -0.000000 0.000000 -0.000000 -0.000000 0.000000 -0.000000 -0.000000 -0.000003 -0.000001 13.193795 30.415119 -46.093453 -0.000003 0.000005 -89.999996 -66.190544 -2.845142 -1.854613 -0.000000 0.000000 0.000000 13.608307 -30.620882 45.975014 0.000007 0.000012 90.000009 -65.886484 -0.000001 0.000000 
0.000000 0.000000 0.000000 -0.000000 0.000000 -0.000000 -0.000000 0.000000 -0.000000 -0.000000 0.000000 0.000000 -0.000000 0.000000 -0.000000 -0.000000 0.000000 -0.000000 -0.000000 0.000000 -0.000000 -0.000000 0.000000 0.000000 -0.000000 0.000000 -0.000000 -0.000000 -0.000000 -0.000000 -0.000000 0.000000 -0.000000 -0.000000 0.000000 -0.000000 -0.000000 0.000000 -0.000000 -0.000000 -0.000003 -0.000001 4.494685 8.293672 -56.851001 -0.000006 0.000006 -89.999989 -83.806892 -0.661126 -0.593274 -0.000000 0.000000 0.000000 5.090575 -8.474212 56.831593 0.000007 0.000007 90.000016 -83.720695 0.000001 -0.000000 
0.000000 0.000000 0.000000 -0.000000 0.000000 -0.000000 -0.000000 0.000000 -0.000000 -0.000000 0.000000 0.000000 -0.000000 0.000000 -0.000000 -0.000000 0.000000 -0.000000 -0.000000 0.000000 -0.000000 -0.000000 0.000000 0.000000 -0.000000 0.000000 -0.000000 -0.000000 -0.000000 -0.000000 -0.000000 0.000000 -0.000000 -0.000000 0.000000 -0.000000 -0.000000 0.000000 -0.000000 -0.000000 -0.000003 -0.000001 -0.000008 -0.000002 -61.927515 -0.000005 0.000005 -89.999989 -89.999989 -0.000000 -0.000002 -0.000000 0.000000 0.000000 0.656987 -0.164267 61.925125 0.000007 0.000007 90.000003 -90.000009 0.000002 -0.000000 
0.000000 0.000000 0.000000 -0.000000 0.000000 -0.000000 -0.000000 0.000000 -0.000000 -0.000000 0.000000 0.000000 -0.000000 0.000000 -0.000000 -0.000000 0.000000 -0.000000 -0.000000 0.000000 -0.000000 -0.000000 0.000000 0.000000 -0.000000 0.000000 -0.000000 -0.000000 -0.000000 -0.000000 -0.000000 0.000000 -0.000000 -0.000000 0.000000 -0.000000 -0.000000 0.000000 -0.000000 -0.000000 -0.000003 -0.000001 -0.000008 -0.000002 -61.927515 -0.000005 0.000005 -89.999989 -89.999989 -0.000000 -0.000002 -0.000000 0.000000 0.000000 0.656987 -0.164267 61.925125 0.000007 0.000007 90.000003 -90.000009 0.000002 -0.000000 
0.000000 0.000000 0.000000 -0.000000 0.000000 -0.000000 -0.000000 0.000000 -0.000000 -0.000000 0.000000 0.000000 -0.000000 0.000000 -0.000000 -0.000000 0.000000 -0.000000 -0.000000 0.000000 -0.000000 -0.000000 0.000000 0.000000 -0.000000 0.000000 -0.000000 -0.000000 -0.000000 -0.000000 -0.000000 0.000000 -0.000000 -0.000000 0.000000 -0.000000 -0.000000 0.000000 -0.000000 -0.000000 -0.000003 -0.000001 -0.000008 -0.000002 -61.927515 -0.000005 0.000005 -89.999989 -89.999989 -0.000000 -0.000002 -0.000000 0.000000 0.000000 0.656987 -0.164267 61.925125 0.000007 0.000007 90.000003 -90.000009 0.000002 -0.000000 
0.000000 0.000000 0.000000 -0.000000 0.000000 -0.000000 -0.000000 0.000000 -0.000000 -0.000000 0.000000 0.000000 -0.000000 0.000000 -0.000000 -0.000000 0.000000 -0.000000 -0.000000 0.000000 -0.000000 -0.000000 0.000000 0.000000 -0.000000 0.000000 -0.000000 -0.000000 -0.000000 -0.000000 -0.000000 0.000000 -0.000000 -0.000000 0.000000 -0.000000 -0.000000 0.000000 -0.000000 -0.000000 -0.000003 -0.000001 -0.000008 -0.000002 -61.927515 -0.000005 0.000005 -89.999989 -89.999989 -0.000000 -0.000002 -0.000000 0.000000 0.000000 0.656987 -0.164267 61.925125 0.000007 0.000007 90.000003 -90.000009 0.000002 -0.000000 
0.000000 0.000000 0.000000 -0.000000 0.000000 -0.000000 -0.000000 0.000000 -0.000000 -0.000000 0.000000 0.000000 -0.000000 0.000000 -0.000000 -0.000000 0.000000 -0.000000 -0.000000 0.000000 -0.000000 -0.000000 0.000000 0.000000 -0.000000 0.000000 -0.000000 -0.000000 -0.000000 -0.000000 -0.000000 0.000000 -0.000000 -0.000000 0.000000 -0.000000 -0.000000 0.000000 -0.000000 -0.000000 -0.000003 -0.000001 -0.000008 -0.000002 -61.927515 -0.000005 0.000005 -89.999989 -89.999989 -0.000000 -0.000002 -0.000000 0.000000 0.000000 0.656987 -0.164267 61.925125 0.000007 0.000007 90.000003 -90.000009 0.000002 -0.000000 
0.000000 0.000000 0.000000 -0.000000 0.000000 -0.000000 -0.000000 0.000000 -0.000000 -0.000000 0.000000 0.000000 -0.000000 0.000000 -0.000000 -0.000000 0.000000 -0.000000 -0.000000 0.000000 -0.000000 -0.000000 0.000000 0.000000 -0.000000 0.000000 -0.000000 -0.000000 -0.000000 -0.000000 -0.000000 0.000000 -0.000000 -0.000000 0.000000 -0.000000 -0.000000 0.000000 -0.000000 -0.000000 -0.000003 -0.000001 -0.000008 -0.000002 -61.927515 -0.000005 0.000005 -89.999989 -89.999989 -0.000000 -0.000002 -0.000000 0.000000 0.000000 0.656987 -0.164267 61.925125 0.000007 0.000007 90.000003 -90.000009 0.000002 -0.000000 
